<svg id="Group_34629" data-name="Group 34629" xmlns="http://www.w3.org/2000/svg" xmlns:xlink="http://www.w3.org/1999/xlink" width="295.087" height="186.145" viewBox="0 0 295.087 186.145">
  <defs>
    <filter id="Path_53807" x="126.979" y="49.707" width="94.386" height="94.387" filterUnits="userSpaceOnUse">
      <feOffset dy="3" input="SourceAlpha"/>
      <feGaussianBlur stdDeviation="3" result="blur"/>
      <feFlood flood-opacity="0.122"/>
      <feComposite operator="in" in2="blur"/>
      <feComposite in="SourceGraphic"/>
    </filter>
  </defs>
  <g id="Group_34168" data-name="Group 34168" transform="translate(0 0.001)">
    <path id="Subtraction_191" data-name="Subtraction 191" d="M172.369,179.636H91.792L105.77,167.09,91.8,154.55h80.57c.422,0,.8,0,1.156-.009a61.421,61.421,0,0,0-.084-122.822l1.261,5.388L149.7,23.385,166.027,0,167.6,6.755c1.676-.091,3.279-.136,4.762-.136a86.51,86.51,0,0,1,61.858,146.988A85.99,85.99,0,0,1,173.99,179.62C173.423,179.631,172.893,179.636,172.369,179.636Zm-87.827,0H0V154.55H7.654v25.077l76.888.006h0Z" transform="translate(0.51)" fill="#0ee17f"/>
    <path id="Path_54256" data-name="Path 54256" d="M549.471,369.743,528.244,350.69v6.51H495.987q-1.667,1.887-3.437,3.7a97.25,97.25,0,0,1-30.8,21.275l-.1.11h66.6v6.51Z" transform="translate(-254.384 -203.199)" fill="#95d0f0"/>
    <path id="Subtraction_189" data-name="Subtraction 189" d="M76.887,38.1V31.6L0,31.591V6.512l76.887,0V0L98.115,19.054,76.889,38.1Z" transform="translate(0 148.04)" fill="#95d0f0"/>
    <path id="Path_54257" data-name="Path 54257" d="M257.281,171.276a61.372,61.372,0,0,1,46.433-59.444l-13.89-8.427,12.6-16.471a85.817,85.817,0,0,0-49.882,139.2H291.28A61.34,61.34,0,0,1,257.281,171.276Z" transform="translate(-145.888 -78.214)" fill="#95d0f0"/>
    <g id="Group_33735" data-name="Group 33735" transform="translate(135.978 55.707)">
      <g id="Group_33575" data-name="Group 33575" transform="translate(0 0)">
        <g id="Group_33574" data-name="Group 33574">
          <g id="Group_33573" data-name="Group 33573">
            <g id="Group_33572" data-name="Group 33572">
              <g transform="matrix(1, 0, 0, 1, -135.98, -55.71)" filter="url(#Path_53807)">
                <path id="Path_53807-2" data-name="Path 53807" d="M515.016,51.8a31.385,31.385,0,0,1,7.664-3.332l1.579-7.587,12.819-.224,1.846,7.527a31.363,31.363,0,0,1,7.777,3.059L553.18,47,562.4,55.9l-4.015,6.623a31.416,31.416,0,0,1,3.331,7.667l7.587,1.579.225,12.819-7.526,1.846a31.479,31.479,0,0,1-3.06,7.777l4.247,6.48-8.9,9.223-6.624-4.015a31.362,31.362,0,0,1-7.666,3.33l-1.579,7.588-12.82.225-1.845-7.528a31.4,31.4,0,0,1-7.778-3.059L509.5,110.7l-9.224-8.906,4.016-6.623a31.4,31.4,0,0,1-3.332-7.667l-7.587-1.579-.224-12.82,7.526-1.846a31.409,31.409,0,0,1,3.06-7.777l-4.247-6.479,8.9-9.224,6.625,4.017Zm6.833,17.077a13.754,13.754,0,1,0,19.448-.342A13.754,13.754,0,0,0,521.849,68.876Z" transform="translate(-357.17 15.05)" fill="#95d0f0"/>
              </g>
            </g>
          </g>
        </g>
      </g>
    </g>
  </g>
</svg>
