<svg xmlns="http://www.w3.org/2000/svg" xmlns:xlink="http://www.w3.org/1999/xlink" width="294.717" height="196.344" viewBox="0 0 294.717 196.344">
  <defs>
    <filter id="Path_53807" x="113.033" y="46.893" width="121.422" height="121.424" filterUnits="userSpaceOnUse">
      <feOffset dy="3" input="SourceAlpha"/>
      <feGaussianBlur stdDeviation="7.5" result="blur"/>
      <feFlood flood-opacity="0.141"/>
      <feComposite operator="in" in2="blur"/>
      <feComposite in="SourceGraphic"/>
    </filter>
  </defs>
  <g id="Group_34628" data-name="Group 34628" transform="translate(0 -0.002)">
    <g id="Group_34168" data-name="Group 34168" transform="translate(0 10.66)">
      <path id="Path_54255" data-name="Path 54255" d="M302.183,102.146a86.023,86.023,0,0,0-61.053-25.162c-1.585,0-3.178.049-4.764.135l-1.58-6.758-16.338,23.4,25.018,13.727-1.26-5.389a61.449,61.449,0,0,1,.081,122.878q-.576.011-1.156.011H68.682v25.1h172.45c.543,0,1.085-.005,1.622-.015a86.579,86.579,0,0,0,59.43-147.922Z" transform="translate(-68.682 -70.361)" fill="#f1a404"/>
      <path id="Path_54256" data-name="Path 54256" d="M549.513,369.753,528.276,350.69V357.2H496q-1.668,1.888-3.439,3.7a97.3,97.3,0,0,1-30.819,21.285l-.1.11h66.631v6.513Z" transform="translate(-254.796 -203.129)" fill="#95d0f0"/>
      <path id="Path_54257" data-name="Path 54257" d="M257.292,171.316a61.4,61.4,0,0,1,46.455-59.473l-13.9-8.431L302.46,86.933A85.858,85.858,0,0,0,252.555,226.2h38.753A61.37,61.37,0,0,1,257.292,171.316Z" transform="translate(-146.357 -78.21)" fill="#95d0f0"/>
      <g id="Group_33735" data-name="Group 33735" transform="translate(135.533 55.734)">
        <g id="Group_33575" data-name="Group 33575" transform="translate(0 0)">
          <g id="Group_33574" data-name="Group 33574">
            <g id="Group_33573" data-name="Group 33573">
              <g id="Group_33572" data-name="Group 33572">
                <g transform="matrix(1, 0, 0, 1, -135.53, -66.39)" filter="url(#Path_53807)">
                  <path id="Path_53807-2" data-name="Path 53807" d="M515.027,51.8a31.4,31.4,0,0,1,7.668-3.334l1.58-7.591,12.826-.224,1.847,7.53a31.378,31.378,0,0,1,7.781,3.061L553.209,47l9.228,8.91-4.017,6.626a31.427,31.427,0,0,1,3.333,7.67l7.591,1.58.226,12.826-7.53,1.847a31.493,31.493,0,0,1-3.062,7.781l4.249,6.483-8.909,9.227-6.627-4.017a31.379,31.379,0,0,1-7.67,3.331l-1.58,7.592-12.826.225-1.845-7.531a31.412,31.412,0,0,1-7.782-3.061l-6.482,4.249-9.228-8.91,4.018-6.626a31.411,31.411,0,0,1-3.334-7.67l-7.591-1.58-.224-12.826,7.53-1.847a31.423,31.423,0,0,1,3.062-7.781l-4.249-6.482,8.909-9.228,6.628,4.018Zm6.836,17.085a13.761,13.761,0,1,0,19.457-.342A13.76,13.76,0,0,0,521.863,68.89Z" transform="translate(-357.61 25.74)" fill="#95d0f0"/>
                </g>
              </g>
            </g>
          </g>
        </g>
      </g>
    </g>
    <path id="Path_54258" data-name="Path 54258" d="M557.872,83.941A38.046,38.046,0,0,0,483.75,76.8a89.092,89.092,0,0,1,10.208,6.95,26.471,26.471,0,1,1,36.873,28.6L528.357,107l-6.975,15.59,16.4,4.778-2.086-4.508A38.056,38.056,0,0,0,557.872,83.941Z" transform="translate(-265.265 -50.11)" fill="#95d0f0"/>
  </g>
</svg>
