<svg xmlns="http://www.w3.org/2000/svg" xmlns:xlink="http://www.w3.org/1999/xlink" width="931" height="1080" viewBox="0 0 931 1080">
  <defs>
    <clipPath id="clip-path">
      <rect id="Rectangle_9050" data-name="Rectangle 9050" width="931" height="1080" transform="translate(989)" fill="#fff" stroke="#707070" stroke-width="1"/>
    </clipPath>
    <filter id="Union_41" x="3" y="-185.767" width="1120.489" height="1207.457" filterUnits="userSpaceOnUse">
      <feOffset dx="-6" dy="11" input="SourceAlpha"/>
      <feGaussianBlur stdDeviation="15" result="blur"/>
      <feFlood flood-opacity="0.161"/>
      <feComposite operator="in" in2="blur"/>
      <feComposite in="SourceGraphic"/>
    </filter>
    <clipPath id="clip-path-2">
      <path id="Union_43" data-name="Union 43" d="M332.321,1117.458C148.789,1117.458,0,968.668,0,785.136A331.376,331.376,0,0,1,101.255,546.293l-.073-.071L647.406,0,1030.04,382.634l-52.678,52.678v682.146Z" fill="#0053b3" stroke="#707070" stroke-width="1"/>
    </clipPath>
  </defs>
  <g id="Mask_Group_474" data-name="Mask Group 474" transform="translate(-989)" clip-path="url(#clip-path)">
    <g id="Group_23663" data-name="Group 23663">
      <g id="Group_23662" data-name="Group 23662" transform="translate(2.902 52)">
        <g transform="matrix(1, 0, 0, 1, 986.1, -52)" filter="url(#Union_41)">
          <path id="Union_41-2" data-name="Union 41" d="M.446,785.134c0-146.021-16.871-237.578,157.016-294.74L647.855,0l382.634,382.634-52.682,52.682v682.138H334.35c-.526,0-1.054,0-1.581,0C149.235,1117.457.446,968.668.446,785.134Z" transform="translate(54 -151.77)" fill="#6eb6f2"/>
        </g>
        <path id="Union_42" data-name="Union 42" d="M0,807.816A331.368,331.368,0,0,1,101.251,568.978l-.069-.067L670.088,0l382.635,382.634-75.36,75.36v682.142H333.907c-.525,0-1.056,0-1.583,0C148.788,1140.14,0,991.352,0,807.816Z" transform="translate(1040.544 -315.354)" fill="#0053b3"/>
        <g id="Mask_Group_473" data-name="Mask Group 473" transform="translate(1040.543 -292.671)" clip-path="url(#clip-path-2)">
          <g id="Group_23661" data-name="Group 23661" transform="translate(-3354.026 -12199.396)">
            <g id="Group_23660" data-name="Group 23660">
              <g id="Group_23655" data-name="Group 23655" transform="translate(3181.759 12311.787)">
                <path id="Subtraction_136" data-name="Subtraction 136" d="M1148.8,1689.411a138.242,138.242,0,0,1-29.577-3.205,139.819,139.819,0,0,1-29.077-9.851l-858.83-300.442a72.87,72.87,0,0,1-21.87-16.323,129.073,129.073,0,0,1-18.266-25.423,217.652,217.652,0,0,1-14.567-32.278A317.091,317.091,0,0,1,165.841,1265H1435.335l-160.466,344.121a139.19,139.19,0,0,1-126.067,80.289Z" transform="translate(-65.671 -444.541)" fill="#215088"/>
                <g id="Group_23632" data-name="Group 23632" transform="translate(-876.6 97.441)">
                  <g id="Group_23627" data-name="Group 23627" transform="translate(-7589.4 -13330.239)">
                    <path id="Path_44640" data-name="Path 44640" d="M225.586,835.647l-.086-.16a.75.75,0,0,1-.091-.236c-.345-.633-139.846-178.912,77.156-302.911,84.91-48.52-5.285-80.6,62.241-134.618,77.6-62.078,162.237,6.655,248.516-21.478a144.265,144.265,0,0,0,45.854-25.239,171.8,171.8,0,0,1,32.884-20.491c31.118-14.975,66.759-21.974,101.663-24.023,96.393-5.593,204.859,26.081,260.826,72.339,11.264,9.317,62.5,57.511,22.081,123.719-25.522,41.8,81.317,81.77,119.275,129.529,64.3,80.908,43.543,144.313,22.272,178.076-2.7,4.294-5.411,8.106-7.953,11.412a154.559,154.559,0,0,1-13.761,15.5Z" transform="translate(8444.651 13232.793)" fill="#ebf3fa"/>
                  </g>
                </g>
                <g id="Group_24070" data-name="Group 24070">
                  <g id="Group_24069" data-name="Group 24069">
                    <g id="Group_23636" data-name="Group 23636" transform="translate(421.263 432.025)">
                      <path id="Path_45504" data-name="Path 45504" d="M1016.593,643.141H775.443c2.268-4.912,14.812-29.092,41.1-26.058,0,0,42.467-50.484,87.723-6.7,0,0,48.123-10.83,83.753,9.415C1003.713,628.715,1012.463,637.921,1016.593,643.141Z" transform="translate(-775.443 -592.52)" fill="#fff"/>
                    </g>
                    <g id="Group_23637" data-name="Group 23637" transform="translate(784.185 404.398)">
                      <path id="Path_45505" data-name="Path 45505" d="M1767.859,563.794s-8.091-19.59-28.189-17.738c0,0-28.631-32.885-60.13-5.253,0,0-32.915-7.475-57.57,5.144-16.438,8.413-21.964,17.419-21.964,17.419Z" transform="translate(-1600.005 -529.75)" fill="#fff"/>
                    </g>
                    <g id="Group_23638" data-name="Group 23638" transform="translate(648.949 333.418)">
                      <path id="Path_45506" data-name="Path 45506" d="M1485.943,410.259s-9.288-24.074-32.424-21.772c0,0-32.914-40.4-69.2-6.386,0,0-37.875-9.15-66.268,6.393-18.931,10.363-25.3,21.442-25.3,21.442Z" transform="translate(-1292.747 -368.48)" fill="#fff"/>
                    </g>
                    <g id="Group_23639" data-name="Group 23639" transform="translate(886.109 368.227)">
                      <path id="Path_45507" data-name="Path 45507" d="M1831.576,465.321s4.221-10.448,14.3-9.283c0,0,14.647-17.411,30.255-2.312,0,0,16.6-3.734,28.885,3.248,8.193,4.655,10.9,9.537,10.9,9.537Z" transform="translate(-1831.576 -447.566)" fill="#fff"/>
                    </g>
                    <g id="Group_23640" data-name="Group 23640" transform="translate(355.958 422.414)">
                      <path id="Path_45508" data-name="Path 45508" d="M627.071,588.7s4.283-10.6,14.515-9.42c0,0,14.861-17.667,30.7-2.346,0,0,16.841-3.789,29.31,3.3,8.313,4.724,11.058,9.677,11.058,9.677Z" transform="translate(-627.071 -570.682)" fill="#fff"/>
                    </g>
                  </g>
                  <g id="Group_23654" data-name="Group 23654" transform="translate(-168.348 -8.648)">
                    <path id="Path_45511" data-name="Path 45511" d="M831.738,942.783s-51.93-73.919-72.224-64.336S831.738,942.783,831.738,942.783Z" transform="translate(-199.857 -295.868)" fill="#a8d29f"/>
                    <path id="Path_45512" data-name="Path 45512" d="M923.177,907.058s-7.932-55.58-20.437-53.4S923.177,907.058,923.177,907.058Z" transform="translate(-294.598 -280.006)" fill="#a8d29f"/>
                    <g id="Group_23644" data-name="Group 23644" transform="translate(495.378 772.433)">
                      <path id="Path_45513" data-name="Path 45513" d="M664.8,1468.223s4.992-24.731-14.393-27.839c0,0-13.148-.459-20.889,4.5,0,0,21.986,12.693,19.371,16.637s-23.479-15.909-23.479-15.909-23.569,10.323-28.829,17.8c0,0,27.851,4.963,24.346,8.143s-32.727-.638-32.727-.638-18.83,15.167-10.629,27.241,17.561,11.988,20.524,9.89,17.466-19.434,19.31-17.076-4.538,17-12.088,21.732c0,0,23.709,7.983,30.851-2.134s3.838-17.983,8.365-24.155,9.719-9.063,8.791-4.83-10.39,13.13-10.431,21.22-.843,13.979,8.4,6.825,21.513-23.7,17.511-32.55Z" transform="translate(-575.507 -1440.372)" fill="#82b378"/>
                      <g id="Group_23643" data-name="Group 23643" transform="translate(12.484 26.264)">
                        <path id="Path_45514" data-name="Path 45514" d="M612.348,1544.026s55.3-33.753,76.812-24.563a46.823,46.823,0,0,0,20.079,9.507l3.34,2.868s-15.563-4.855-19.416-3.521C693.163,1528.317,687.456,1505.231,612.348,1544.026Z" transform="translate(-612.348 -1517.877)" fill="#82b378"/>
                        <path id="Path_45515" data-name="Path 45515" d="M890.6,1550.576s17.143,2.194,26.942,17.753l-2.092,1.427s-13.135-14.41-23.759-16.98S890.6,1550.576,890.6,1550.576Z" transform="translate(-793.708 -1539.483)" fill="#82b378"/>
                      </g>
                    </g>
                    <g id="Group_23646" data-name="Group 23646" transform="translate(454.307 624.131)">
                      <path id="Path_45516" data-name="Path 45516" d="M601.6,1106.729s40.157-22.488,21.417-53.007c0,0-14.992-18.74-31.054-23.558,0,0,8.567,45.511,0,46.582s-5.89-51.4-5.89-51.4-42.3-20.346-58.9-18.74c0,0,26.236,44.44,17.669,43.369s-38.015-46.046-38.015-46.046S463.463,995.9,456.5,1021.6s4.283,38.551,10.708,40.157,47.653,1.071,46.582,6.425-28.913,13.921-44.44,9.1c0,0,17.134,42.3,39.621,40.157s29.448-16.063,43.369-17.134,24.094,2.677,17.133,6.425-30.519,1.228-41.763,10.787-20.346,15.448.535,19.732,58.361,1.606,65.857-14.456Z" transform="translate(-454.307 -1002.74)" fill="#a8d29f"/>
                      <g id="Group_23645" data-name="Group 23645" transform="translate(22.007 26.888)">
                        <path id="Path_45517" data-name="Path 45517" d="M519.247,1082.086s112.439,36.409,125.289,77.1c0,0-.535,18.2,10.708,39.086v8.031s-11.779-27.306-18.2-31.054C637.04,1175.25,662.2,1139.912,519.247,1082.086Z" transform="translate(-519.247 -1082.086)" fill="#82b378"/>
                        <path id="Path_45518" data-name="Path 45518" d="M910.088,1415.2s17.34,26.332,7.455,58.384l-4.461-1.2s4.33-35.3-4.742-53.06S910.088,1415.2,910.088,1415.2Z" transform="translate(-774.091 -1299.009)" fill="#82b378"/>
                      </g>
                    </g>
                    <g id="Group_23648" data-name="Group 23648" transform="translate(1023.888 560.847)">
                      <path id="Path_45519" data-name="Path 45519" d="M2154.945,884.036s-27.026-17.24-12.776-37.714c0,0,11.173-12.432,22.535-15.142,0,0-7.774,31.3-1.86,32.391s6.147-35.507,6.147-35.507,30.225-12.459,41.7-10.68c0,0-20.017,29.854-14.018,29.452s28.272-30.5,28.272-30.5,30.478-3.854,34.292,14.3-4.518,26.636-9.049,27.5-33.179-1.158-32.648,2.608,19.549,10.834,30.539,8.1c0,0-13.6,28.729-29.155,26.342s-19.836-12.345-29.473-13.645-16.861.9-12.17,3.784,21.173,2.072,28.61,9.168,13.531,11.555-1.16,13.7-40.647-1.212-45.218-12.681Z" transform="translate(-2137.034 -815.993)" fill="#82b378"/>
                      <g id="Group_23647" data-name="Group 23647" transform="translate(0 19.432)">
                        <path id="Path_45520" data-name="Path 45520" d="M2259.968,873.334s-79.639,20.829-90.2,48.612c0,0-.354,12.68-9.006,26.752l-.321,5.585s9.281-18.518,13.9-20.868C2174.339,933.415,2158.251,907.837,2259.968,873.334Z" transform="translate(-2151.858 -873.334)" fill="#82b378"/>
                        <path id="Path_45521" data-name="Path 45521" d="M2144.017,1089.342s-13.109,17.618-7.515,40.3l3.15-.655s-1.6-24.722,5.416-36.707S2144.017,1089.342,2144.017,1089.342Z" transform="translate(-2135.113 -1013.979)" fill="#82b378"/>
                      </g>
                    </g>
                    <g id="Group_23650" data-name="Group 23650" transform="translate(934.778 430.068)">
                      <path id="Path_45522" data-name="Path 45522" d="M1906.408,554.059s-41.524-9.118-33.136-41.118c0,0,8.231-20.583,21.139-29.147,0,0,4.623,42.526,12.483,41.178s-8.567-47.015-8.567-47.015,31.939-29.32,47.041-32.348c0,0-11.283,46.315-4,43.072s21.266-50.891,21.266-50.891,36.185-18.721,49.225,2.133,6.543,35.226,1.294,38.367-41.837,13.716-39.455,18.162,29.288,4.559,41.723-3.862c0,0-3.811,41.982-24.264,46.115s-30.336-6.308-42.929-3.524-20.581,8.823-13.424,10.271,27.308-7.092,39.809-1.655,22.125,8.2,4.814,17.586-51.16,17.059-62.09,4.868Z" transform="translate(-1872.153 -430.068)" fill="#a8d29f"/>
                      <g id="Group_23649" data-name="Group 23649" transform="translate(33.289 22.263)">
                        <path id="Path_45523" data-name="Path 45523" d="M2063.33,495.766s-89.637,62.314-90.093,101.728c0,0,5.352,15.949,1.008,37.421l2.152,7.1s3.1-27.295,7.771-32.329C1984.168,609.685,1952.453,585.19,2063.33,495.766Z" transform="translate(-1972.271 -495.766)" fill="#82b378"/>
                        <path id="Path_45524" data-name="Path 45524" d="M1972.361,895.085s-8.272,27.923,9.055,53.608l3.622-2.255s-13.288-30.048-10.026-48.175S1972.361,895.085,1972.361,895.085Z" transform="translate(-1970.387 -755.936)" fill="#82b378"/>
                      </g>
                    </g>
                    <path id="Path_45525" data-name="Path 45525" d="M2531.131,1640.338h-30.769c-1.649-1.4,1.141-4.575,4.056-4.789a17.973,17.973,0,0,1,4.7.556c.424-5.624,2.842-30.906,11.955-29.89,10.247,1.137,0,11.134-2.9,17.052a140.625,140.625,0,0,0-5.443,13.636c.832.18,1.693.357,2.573.519,1.358-4.17,6.411-18.2,12.837-17.38,7.545.957,4.512,6.581-.835,9.92-3.924,2.455-8.742,5.944-11.031,7.629a32.621,32.621,0,0,0,6.018.482C2527.561,1637.949,2530.133,1639.5,2531.131,1640.338Z" transform="translate(-1352.376 -794.562)" fill="#82b378"/>
                    <path id="Path_45526" data-name="Path 45526" d="M487.892,1643.86c-1.631-2.561-6.538-9.209-13.074-8.33-7.121.959,7.866,5.654,12.454,8.35a7.606,7.606,0,0,1-2.538-.3c-3.068-1.094-8.321,1-10,1.74h29.2a4.626,4.626,0,0,0-2.088-2.671,5.22,5.22,0,0,0-2.688-.239c1.736-2.047,2.942-8.586-1.892-6.9-3.531,1.229-3.522,5.225-3.175,7.588-.751.118-1.513.237-2.266.345-1.454-7.41-6.6-29.127-17.02-29.706-10.567-.587,8.96,22.523,15.462,29.913C489.436,1643.75,488.634,1643.826,487.892,1643.86Z" transform="translate(-11.52 -800.547)" fill="#82b378"/>
                    <g id="Group_16905" data-name="Group 16905" transform="translate(574.966 460.357)">
                      <path id="Path_33481" data-name="Path 33481" d="M833.59,516.514s-37.175-1.819-17.455,111.481c0,0,13.268,38.459-3.48,63.247h246.536V516.514Z" transform="translate(-810.368 -516.508)" fill="#fea963"/>
                      <path id="Rectangle_6340" data-name="Rectangle 6340" d="M0,0H360.456V344.838H0Z" transform="translate(39.876 67.066)" fill="#ed7d2b"/>
                      <path id="Rectangle_6341" data-name="Rectangle 6341" d="M0,0H349.16V344.838H0Z" transform="translate(55.261 67.066)" fill="#f8fbff"/>
                      <path id="Path_33501" data-name="Path 33501" d="M1264.978,583.561H915.673c1.932-19.138-.979-33.034-5.643-43.027-8.955-19.218-24.394-24.035-24.394-24.035h329.422c28.117,0,49.921,12.267,55.851,28.56.221.615.428,1.228.607,1.833C1277.147,565.532,1265.208,583.22,1264.978,583.561Z" transform="translate(-860.129 -516.499)" fill="#f0ece2"/>
                      <path id="Path_33502" data-name="Path 33502" d="M1310.655,630.453H964.217c1.917-19.138-.97-33.034-5.6-43.027,35.4,4.736,123.088,14.823,216.944,13.128,60.723-1.1,108.7-4.067,141.573-6.771C1322.724,612.424,1310.883,630.112,1310.655,630.453Z" transform="translate(-908.381 -563.391)" fill="#f0ece2"/>
                      <g id="Group_16893" data-name="Group 16893" transform="translate(90.493 138.174)">
                        <path id="Rectangle_6342" data-name="Rectangle 6342" d="M1.049,0H255.2a1.051,1.051,0,0,1,1.051,1.051v4.19A1.055,1.055,0,0,1,255.2,6.3H1.052A1.052,1.052,0,0,1,0,5.244V1.049A1.049,1.049,0,0,1,1.049,0Z" transform="translate(16.656)" fill="#78acea"/>
                        <path id="Rectangle_6343" data-name="Rectangle 6343" d="M1.054,0H85.69a1.055,1.055,0,0,1,1.055,1.055V5.241A1.055,1.055,0,0,1,85.69,6.3H1.052A1.052,1.052,0,0,1,0,5.244V1.054A1.054,1.054,0,0,1,1.054,0Z" transform="translate(16.656 10.59)" fill="#78acea"/>
                        <g id="Group_16892" data-name="Group 16892" transform="translate(0 0.002)">
                          <path id="Path_33503" data-name="Path 33503" d="M1081.137,940.114V927.256h-1.7q-1.544,0-1.545-1.288,0-.922,1.209-1.309a8.874,8.874,0,0,1,1.968-.308q1.351-.1,2.173-.1c.532,0,.866.106,1,.322a3.822,3.822,0,0,1,.2,1.635v13.913h1.749q1.7,0,1.7,1.465,0,1.543-1.7,1.544h-7.044a1.936,1.936,0,0,1-1.247-.4,1.347,1.347,0,0,1-.5-1.118q0-1.491,1.723-1.491Z" transform="translate(-1077.408 -924.249)" fill="#78acea"/>
                        </g>
                      </g>
                      <g id="Group_16895" data-name="Group 16895" transform="translate(90.354 204.467)">
                        <path id="Rectangle_6344" data-name="Rectangle 6344" d="M1.049,0H255.2a1.051,1.051,0,0,1,1.051,1.051v4.19A1.055,1.055,0,0,1,255.2,6.3H1.055A1.055,1.055,0,0,1,0,5.241V1.049A1.049,1.049,0,0,1,1.049,0Z" transform="translate(16.76 0.005)" fill="#afcdfb"/>
                        <path id="Rectangle_6345" data-name="Rectangle 6345" d="M1.055,0H85.693a1.052,1.052,0,0,1,1.052,1.052V5.241A1.055,1.055,0,0,1,85.69,6.3H1.055A1.055,1.055,0,0,1,0,5.241V1.055A1.055,1.055,0,0,1,1.055,0Z" transform="translate(16.76 10.595)" fill="#afcdfb"/>
                        <g id="Group_16894" data-name="Group 16894">
                          <path id="Path_33504" data-name="Path 33504" d="M1087.861,1135.477q0,1.285-1.795,1.284h-7.455q-1.614,0-1.614-1.3a1.628,1.628,0,0,1,.432-.955q.636-.727,1.864-2.18,1.863-2.342,3.114-4.047.43-.569,1.226-1.727a4.17,4.17,0,0,0,.66-1.955,2.011,2.011,0,0,0-.568-1.465,1.948,1.948,0,0,0-1.455-.581,2.247,2.247,0,0,0-1.5.545,2.6,2.6,0,0,0-.682,1.364,14.911,14.911,0,0,1-.408,1.5,1.15,1.15,0,0,1-1.112.729,1.278,1.278,0,0,1-1.068-.5,1.7,1.7,0,0,1-.363-1.138,5.488,5.488,0,0,1,.25-1.614,4.838,4.838,0,0,1,1.933-2.681,5.6,5.6,0,0,1,3.2-.887,4.962,4.962,0,0,1,3.454,1.252,4.375,4.375,0,0,1,1.43,3.372,5.87,5.87,0,0,1-1.022,3.142q-.567.886-2.341,3.141-.907,1.162-2.862,3.374h4.907Q1087.862,1134.146,1087.861,1135.477Z" transform="translate(-1076.998 -1119.871)" fill="#afcdfb"/>
                        </g>
                      </g>
                      <g id="Group_16897" data-name="Group 16897" transform="translate(89.973 259.089)">
                        <path id="Rectangle_6346" data-name="Rectangle 6346" d="M1.055,0H255.2a1.051,1.051,0,0,1,1.051,1.051v4.19A1.055,1.055,0,0,1,255.2,6.3H1.055A1.055,1.055,0,0,1,0,5.241V1.055A1.055,1.055,0,0,1,1.055,0Z" transform="translate(17.048 0.683)" fill="#afcdfb"/>
                        <path id="Rectangle_6347" data-name="Rectangle 6347" d="M1126.541,1314.33h86.03a.357.357,0,0,1,.358.356v5.582a.357.357,0,0,1-.358.357h-86.03a.357.357,0,0,1-.358-.357v-5.582A.357.357,0,0,1,1126.541,1314.33Z" transform="translate(-1109.135 -1303.055)" fill="#afcdfb"/>
                        <g id="Group_16896" data-name="Group 16896">
                          <path id="Path_33505" data-name="Path 33505" d="M1087.026,1293.353a4.876,4.876,0,0,1-1.7,3.886,5.975,5.975,0,0,1-4.066,1.393,5.686,5.686,0,0,1-3.251-.906,4.14,4.14,0,0,1-2.137-3.46,1.454,1.454,0,0,1,.372-1,1.216,1.216,0,0,1,.953-.419,1.459,1.459,0,0,1,1.138.819,17.8,17.8,0,0,0,1,1.487,2.6,2.6,0,0,0,1.976.819,2.471,2.471,0,0,0,2.323-1.21,3.227,3.227,0,0,0,.325-1.534q0-2.274-2.672-2.532-1.51-.138-1.51-1.278a1.215,1.215,0,0,1,.877-1.184q1.635-.6,1.661-.627a2.239,2.239,0,0,0,.876-2.021,1.814,1.814,0,0,0-.511-1.36,1.874,1.874,0,0,0-1.366-.5,2.509,2.509,0,0,0-1.665.511,3.337,3.337,0,0,0-.856,1.512,1.06,1.06,0,0,1-1.066.816,1.094,1.094,0,0,1-.914-.487,1.766,1.766,0,0,1-.36-1.068,2.989,2.989,0,0,1,.4-1.442,4.464,4.464,0,0,1,2-1.88,5.858,5.858,0,0,1,2.694-.629,4.7,4.7,0,0,1,3.286,1.2,4.056,4.056,0,0,1,1.313,3.146,4.313,4.313,0,0,1-1.952,3.718A4.211,4.211,0,0,1,1087.026,1293.353Z" transform="translate(-1075.874 -1281.058)" fill="#afcdfb"/>
                        </g>
                      </g>
                      <g id="Group_16898" data-name="Group 16898" transform="translate(175.153 82.049)">
                        <path id="Rectangle_6348" data-name="Rectangle 6348" d="M1393.723,758.622H1481.7a.414.414,0,0,1,.414.413v6.485a.415.415,0,0,1-.414.415h-87.979a.415.415,0,0,1-.415-.415v-6.485A.414.414,0,0,1,1393.723,758.622Z" transform="translate(-1370.918 -758.622)" fill="#afcdfb"/>
                        <path id="Rectangle_6349" data-name="Rectangle 6349" d="M1327.645,791.894h132.766a.41.41,0,0,1,.41.409v6.491a.415.415,0,0,1-.414.413H1327.65a.414.414,0,0,1-.414-.413h0V792.3A.41.41,0,0,1,1327.645,791.894Z" transform="translate(-1327.236 -780.619)" fill="#afcdfb"/>
                      </g>
                      <g id="Group_16899" data-name="Group 16899" transform="translate(66.955 113.47)">
                        <path id="Path_33506" data-name="Path 33506" d="M1167.97,916.287c-42.6,0-83.032-3.458-113.17-8.4-30.45-5-46.853-13.16-46.853-20.4,0-6.565,13.366-12.6,38.655-17.458h0c-24.236,4.654-37.2,11.489-37.2,17.458,0,6.621,16.8,13.176,46.093,17.982,30.031,4.926,69.975,7.641,112.469,7.641s82.437-2.715,112.469-7.641c29.293-4.806,46.092-11.361,46.092-17.982,0-7.012-17.685-15.73-46.167-22.746-32.38-7.974-72.3-10.937-112.394-10.937-75.28,0-106.27,5.686-133.157,12.812h0c27-7.156,57.612-15.268,133.157-15.268,40.259,0,80.351,4.414,112.878,12.429,29.079,7.165,47.143,16.254,47.143,23.71,0,7.241-16.764,13.98-47.219,18.976C1250.631,911.4,1210.572,916.287,1167.97,916.287Z" transform="translate(-1007.947 -851.343)" fill="#c65447"/>
                      </g>
                      <path id="Path_33529" data-name="Path 33529" d="M1347.077,1482.168H1080.654c-1.784,0-3.241-.852-3.241-1.895h0c0-1.042,1.459-1.894,3.241-1.894h266.422c1.784,0,3.242.853,3.242,1.894h0C1350.318,1481.316,1348.859,1482.168,1347.077,1482.168Z" transform="translate(-986.918 -1152.423)" fill="#afcdfb"/>
                      <path id="Path_33530" data-name="Path 33530" d="M1347.077,1504.544H1080.654c-1.784,0-3.241-.853-3.241-1.895h0c0-1.04,1.459-1.893,3.241-1.893h266.422c1.784,0,3.242.853,3.242,1.893h0C1350.318,1503.691,1348.859,1504.544,1347.077,1504.544Z" transform="translate(-986.918 -1167.217)" fill="#afcdfb"/>
                      <path id="Path_33531" data-name="Path 33531" d="M1347.077,1529.331H1080.654c-1.784,0-3.241-.853-3.241-1.895h0c0-1.042,1.459-1.893,3.241-1.893h266.422c1.784,0,3.242.851,3.242,1.893h0C1350.318,1528.478,1348.859,1529.331,1347.077,1529.331Z" transform="translate(-986.918 -1183.604)" fill="#afcdfb"/>
                      <path id="Rectangle_6351" data-name="Rectangle 6351" d="M1077.99,1550.33h251.921a.215.215,0,0,1,.216.214v3.358a.215.215,0,0,1-.216.216H1077.99a.215.215,0,0,1-.215-.216v-3.358A.214.214,0,0,1,1077.99,1550.33Z" transform="translate(-987.158 -1199.992)" fill="#afcdfb"/>
                    </g>
                    <g id="Group_23653" data-name="Group 23653" transform="translate(928.81 581.722)">
                      <path id="Path_45527" data-name="Path 45527" d="M1990.59,984.638l-1.982-3.739s.984-6.663-7.365-10.877c0,0-3.051-1.243-4.774,1.246-1.586,2.292,3.024,1.878,2.777,5.8a7.21,7.21,0,0,0,4.2,7.5l2.141,2.481Z" transform="translate(-1944.931 -922.577)" fill="#ffb27d"/>
                      <path id="Path_45528" data-name="Path 45528" d="M2082.039,984.864s-7.169,35.189-46.623,46.686c-12.316,3.589-40.3-36.958-40.3-36.958s.984-3.738,7.146-2.879c0,0,27.243,18.036,30.673,19.995,3.043,1.739,23.057-22.348,32.181-26.233A23.286,23.286,0,0,1,2082.039,984.864Z" transform="translate(-1957.482 -931.741)" fill="#233862"/>
                      <g id="Group_23651" data-name="Group 23651" transform="translate(0 44.091)">
                        <rect id="Rectangle_9047" data-name="Rectangle 9047" width="8.682" height="43.674" transform="translate(10.775 16.939) rotate(-100.493)" fill="#c65447"/>
                        <path id="Path_45529" data-name="Path 45529" d="M1884.051,991.638l10.775,2.42-1.581-8.537Z" transform="translate(-1884.051 -977.119)" fill="#ffb27d"/>
                        <path id="Path_45530" data-name="Path 45530" d="M2043.423,963.086l.5,2.7a3.058,3.058,0,0,1-2.449,3.563l-1.986.368-1.581-8.537,2.16-.4A2.88,2.88,0,0,1,2043.423,963.086Z" transform="translate(-1985.769 -960.729)" fill="#ffb27d"/>
                      </g>
                      <g id="Group_23652" data-name="Group 23652" transform="translate(82.843 132.768)">
                        <path id="Path_45531" data-name="Path 45531" d="M2356.016,1636.026s4.895,4.467,3.939,7.641-5.372,5.29-5.969,9.169-2.984,5.995-5.133,5.995h-10.245s-1.582-2.729,2.239-3.552,5.26-5.381,5.021-9.612a74.559,74.559,0,0,1,.358-9.874l8.118-1.881Z" transform="translate(-2267.199 -1494.463)" fill="#233862"/>
                        <path id="Path_45532" data-name="Path 45532" d="M2157.287,1666.57s.879,10.165-1.271,11.223l-27.5-.056s0-3.174,4.417-3.879,12.176-3.291,13.49-9.051S2157.287,1666.57,2157.287,1666.57Z" transform="translate(-2128.517 -1513.455)" fill="#233862"/>
                        <path id="Path_45533" data-name="Path 45533" d="M2144.9,1245.69s1.451,17.819,3.155,39.238c2.317,29.1,5.1,64.835,5.379,71.606.476,11.757,2.389,30.563,2.389,30.563s4.534,4.468,13.609,2.584c0,0,8.087-26.846,10.4-55.251.035-.465.072-.934.107-1.4,2.149-28.916,5.49-89.806,5.49-89.806Z" transform="translate(-2139.35 -1236.169)" fill="#f99746"/>
                        <path id="Path_45534" data-name="Path 45534" d="M2144.9,1245.69s1.451,17.819,3.155,39.238l31.774,49.5c.035-.465.072-.934.107-1.4,2.149-28.916,5.49-89.806,5.49-89.806Z" transform="translate(-2139.35 -1236.169)" fill="#ed7d2b"/>
                        <path id="Path_45535" data-name="Path 45535" d="M2164.449,1234.047s26.144,64.532,43.333,94.859,22.562,38.79,22.562,38.79,9.849-3.88,10.744-6.524c0,0-6.574-58.547-18.085-72.82-6.505-8.065-14.146-32.266-14.5-40.729s-2.328-25.214-2.328-25.214Z" transform="translate(-2152.272 -1222.41)" fill="#f99746"/>
                      </g>
                      <path id="Path_45536" data-name="Path 45536" d="M2211.548,921.464s-17.689,8.535-27.887,5.368a24.06,24.06,0,0,1,6.9-5.523c-.353-2.047-.627-3.824-.784-5.329a49.211,49.211,0,0,1-.432-5.446l6.825-5.368,6.472-5.137C2202.135,914.474,2211.548,921.464,2211.548,921.464Z" transform="translate(-2082.131 -876.508)" fill="#ffb27d"/>
                      <path id="Path_45537" data-name="Path 45537" d="M2140.917,1054.259a1.6,1.6,0,0,0,1.062.423c3.842-.078,15.021,2.045,24.47,1.08,8-.772,15.062-3.089,22.632-6.407,1.021-.464,3.337-1.7,3.3-2.781-.041-1.237-.156-2.974-.312-5.217-.317-4.412-.763-10.677-.906-18.1-.105-5.506-.046-11.652.354-18.16.023-.437.046-.878.064-1.319.115-2.386.17-4.79.17-7.138a123.881,123.881,0,0,0-1.6-21.239c-1.926-11.2-5.534-19.966-10.865-23.868-.708-.542-5.1,1.581-9.179,3.553a16.964,16.964,0,0,1-10.981,1.315l-3.53,3.089c-4.28,3.9-8.986,9.266-11.063,17.378-1.724,6.876-2.744,19.308-3.3,32.21-.271,5.869-.469,11.739-.547,17.337v.193c-.042.579-.042,1.163-.042,1.742C2140.448,1042.672,2140.641,1054.066,2140.917,1054.259Z" transform="translate(-2053.638 -910.498)" fill="#2b478b"/>
                      <path id="Path_45538" data-name="Path 45538" d="M2213.857,915.574s-4.471,8.149-12.982,10.427a49.212,49.212,0,0,1-.432-5.446l6.825-5.368Z" transform="translate(-2093.226 -886.53)" fill="#ed985f"/>
                      <path id="Path_45539" data-name="Path 45539" d="M2184.837,876.7s16.874,2.76,18.459-7.613,4.828-17-5.878-19.206-13.41,1.447-14.794,4.783S2180.489,875.719,2184.837,876.7Z" transform="translate(-2080.732 -842.913)" fill="#ffb27d"/>
                      <path id="Path_45540" data-name="Path 45540" d="M2198.789,836.348c.154-.176.507-.317,1.293-.36a3.2,3.2,0,0,0-1.469-.414c-.164-1.093-.746-3.029-2.628-3.5a2.358,2.358,0,0,1,1.144,1.7c-2.18-2.239-6.85-3.868-19.782-2.847-17.044,1.345-11.427,12.258-9.22,13.559s7.76-2.265,11.871-1.939,4.893,6.267,6.288,7.082.846-.626,2.733-1.479,2.066,2.274,1.521,4.307,2.048,4.714,2.048,4.714l2.62-2.822c2.62-2.821,5.089-14.773,3.9-17.321C2199,836.805,2198.9,836.578,2198.789,836.348Z" transform="translate(-2070.092 -830.618)" fill="#2c3a64"/>
                      <path id="Path_45541" data-name="Path 45541" d="M2002.671,988.908s.581-2.293-1.01-3.324-3.054-3.835-3.726-3.455c-1.389.787.761,3.233.367,6.284C1998.165,989.482,2000.653,992.282,2002.671,988.908Z" transform="translate(-1959.03 -930.763)" fill="#ffb27d"/>
                      <path id="Path_45542" data-name="Path 45542" d="M2269.7,1095.641c-.105-5.506-.046-11.652.354-18.16.022-.437.046-.878.064-1.319-1.6-7.947-4.031-15-7.6-15.227C2262.521,1060.935,2251.88,1077.656,2269.7,1095.641Z" transform="translate(-2132.184 -982.887)" fill="#233862"/>
                      <path id="Path_45543" data-name="Path 45543" d="M2310.207,1244.991s-.887,8.623-1.86,10.254-5.116,6.843-6.881,7.865,1.077-6.867.718-8.4-1.453,2.8-2.23,2.9-.578-3.8-.606-5.222,3.785-4.927,5.129-7.952S2310.207,1244.991,2310.207,1244.991Z" transform="translate(-2158.612 -1103.402)" fill="#ffb27d"/>
                      <path id="Path_45544" data-name="Path 45544" d="M2239.015,951.442s10.677,5.056,15.8,12.828c7.941,12.057,17.145,56,17.315,60.066s-6.719,32.795-6.719,32.795-6.986-.46-8.788-3.987c0,0,1.4-29.515.511-31.412s-29.124-39.592-25.949-47.635S2239.015,951.442,2239.015,951.442Z" transform="translate(-2113.384 -910.498)" fill="#2b478b"/>
                      <path id="Path_45545" data-name="Path 45545" d="M1889.572,992.732l.563,5.04-6.084-1.366Z" transform="translate(-1884.051 -937.796)" fill="#c65447"/>
                    </g>
                  </g>
                </g>
              </g>
              <g id="Group_23120" data-name="Group 23120" transform="translate(-336 -24.751)">
                <g id="Group_23119" data-name="Group 23119" transform="translate(0 -26.176)">
                  <g id="Group_23117" data-name="Group 23117" transform="translate(3615.321 13228.176)">
                    <path id="Path_44685" data-name="Path 44685" d="M330.531,1366.4s-9.7-69.841,72.094-91.764,102.467,41.774,102.467,41.774,27.985-15.662,53.077-4.368c0,0,35.679-33.111,102.642-20.4,0,0,24.875-54.946,91.656-51.127,41.932,2.4,79.578,51.231,79.578,51.231s39.626-54.711,110.733-7.058c0,0,35.958-21.135,71.2.024,0,0,31.237-10.563,49.806-2.1,0,0,46.771-11.263,72.841,26.106,0,0,63.561-19.042,107.071,11.05,0,0,15.326-9.169,33.183-5.986,0,0,21.622-10.689,44.647.016s21.137,32.322,21.137,32.322,32.146-5.907,34.985,21.823Z" transform="translate(-330.175 -1240.321)" fill="#cfdbfc"/>
                  </g>
                  <g id="Group_23118" data-name="Group 23118" transform="translate(3424.197 13263.924)">
                    <path id="Path_44686" data-name="Path 44686" d="M1448.758,1599.762s-61.775-303.206-143.564-325.129-102.467,41.774-102.467,41.774-27.985-15.662-53.077-4.368c0,0-35.679-33.111-102.642-20.4,0,0-24.875-54.946-91.656-51.127-41.932,2.4-79.578,51.231-79.578,51.231s-39.626-54.711-110.733-7.058c0,0-35.958-21.135-71.2.024,0,0-31.237-10.563-49.806-2.1,0,0-46.771-11.263-72.841,26.106,0,0-63.561-19.042-107.071,11.05,0,0-15.326-9.169-33.183-5.986,0,0-21.622-10.689-44.647.016s-21.137,32.322-21.137,32.322-59.677,184.719-62.516,212.448Z" transform="translate(-128.175 -1246.321)" fill="#ebf3fa"/>
                  </g>
                </g>
              </g>
            </g>
          </g>
        </g>
      </g>
    </g>
  </g>
</svg>
